# xmcd
#
# Track frame offsets: 
#        150
#        4170
#        18062
#        37035
#        56202
#        72107
#        87445
#        102467
#        121070
#        138922
#        153567
#        168737
#        187497
#
# Disc length: 2707 seconds
#
# Revision: 4
# Processed by: cddbd v1.5.2PL0 Copyright (c) Steve Scherf et al.
# Submitted via: ExactAudioCopy v1.0b4
#
DISCID=b50a910d
DTITLE=Meninas Cantoras De Petrópolis - Coração Sertanejo
DYEAR=1998
DGENRE=MPB
TTITLE0=O Ensaio
TTITLE1=Nascemos Pra Cantar
TTITLE2=É O Amor
TTITLE3=Eu Juro
TTITLE4=Coração Sertanejo
TTITLE5=Pão De Mel
TTITLE6=Desculpe, Mas Eu Vou Chorar
TTITLE7=Nuvem De Lágrimas
TTITLE8=Eu Só Penso Em Você
TTITLE9=Não Aprendi A Dizer Adeus
TTITLE10=Brincar De Ser Feliz
TTITLE11=Bailão De Peão - Festa De Rodeio
TTITLE12=Pense Em Mim
EXTD=559 531-2 [P] 1998 YEAR: 1998
EXTT0=
EXTT1=
EXTT2=
EXTT3=
EXTT4=
EXTT5=
EXTT6=
EXTT7=
EXTT8=
EXTT9=
EXTT10=
EXTT11=
EXTT12=
PLAYORDER=
